<?xml version="1.0" standalone="no"?><!DOCTYPE svg PUBLIC "-//W3C//DTD SVG 1.1//EN" "http://www.w3.org/Graphics/SVG/1.1/DTD/svg11.dtd"><svg t="1604799890907" class="icon" viewBox="0 0 1024 1024" version="1.1" xmlns="http://www.w3.org/2000/svg" p-id="1665" xmlns:xlink="http://www.w3.org/1999/xlink" width="200" height="200"><defs><style type="text/css"></style></defs><path d="M507.4 497.1c-127.1 0-238.3 68.1-299.1 169.9v222c0 23.6 19.1 42.7 42.7 42.7h523.5c23.6 0 42.7-19.1 42.7-42.7V686.2c-57.8-112.3-174.8-189.1-309.8-189.1z" fill="#46A8FF" p-id="1666"></path><path d="M481.8 723.2c-100.7 0-182.6-81.9-182.6-182.6S381.1 358 481.8 358c100.7 0 182.6 81.9 182.6 182.6s-81.9 182.6-182.6 182.6z m0-312.2c-71.5 0-129.6 58.1-129.6 129.6s58.1 129.6 129.6 129.6 129.6-58.1 129.6-129.6S553.2 411 481.8 411z" p-id="1667"></path><path d="M693.1 788.3c-6.8 0-13.6-2.6-18.7-7.8l-96.2-96.2c-10.3-10.3-10.3-27.1 0-37.5 10.3-10.3 27.1-10.3 37.5 0l96.2 96.2c10.3 10.3 10.3 27.1 0 37.5-5.3 5.2-12.1 7.8-18.8 7.8z" p-id="1668"></path><path d="M700.4 247.2m-26.5 0a26.5 26.5 0 1 0 53 0 26.5 26.5 0 1 0-53 0Z" fill="#46A8FF" p-id="1669"></path><path d="M251 958.2c-38.2 0-69.2-31.1-69.2-69.2V560.5c0-8.9-7.3-16.2-16.2-16.2h-31.2c-28.8 0-54.2-17.4-64.6-44.3-10.4-26.9-3.3-56.8 18-76.2l374.3-340c26.3-23.9 66.1-24 92.6-0.4l90.7 80.9c10.9 9.7 11.9 26.5 2.1 37.4-9.7 10.9-26.5 11.9-37.4 2.1L519.5 123c-6.2-5.5-15.5-5.5-21.7 0.1L123.4 463c-7.4 6.8-5.4 14.7-4.2 17.9 1.2 3.1 5.1 10.4 15.1 10.4h31.2c38.2 0 69.2 31.1 69.2 69.2V889c0 8.9 7.3 16.2 16.2 16.2h523.5c8.9 0 16.2-7.3 16.2-16.2V560.5c0-38.2 31-69.2 69.2-69.2h29.8c10.1 0 14-7.3 15.2-10.4 1.2-3.1 3.2-11.2-4.4-17.9l-145-129.5c-10.9-9.7-11.9-26.5-2.1-37.4 9.7-10.9 26.5-11.9 37.4-2.1l145.1 129.4c21.6 19.3 28.9 49.2 18.6 76.3-10.3 27.1-35.7 44.6-64.7 44.6h-29.8c-8.9 0-16.2 7.3-16.2 16.2V889c0 38.2-31 69.2-69.2 69.2H251z" p-id="1670"></path></svg>